<svg xmlns="http://www.w3.org/2000/svg" width="1200" height="630" viewBox="0 0 1200 630">
  <rect width="1200" height="630" fill="#0b0d12"/>
  <!-- Grid lines -->
  <line x1="0" y1="210" x2="1200" y2="210" stroke="#1a1f2e" stroke-width="1"/>
  <line x1="0" y1="420" x2="1200" y2="420" stroke="#1a1f2e" stroke-width="1"/>
  <line x1="400" y1="0" x2="400" y2="630" stroke="#1a1f2e" stroke-width="1"/>
  <line x1="800" y1="0" x2="800" y2="630" stroke="#1a1f2e" stroke-width="1"/>
  <!-- Signal wave -->
  <path d="M60 315 L120 315 L120 240 L180 240 L180 315 L220 315 L220 390 L300 390 L300 315 L340 315 L340 250 L400 250 L400 315 L430 315 L430 380 L490 380 L490 315 L540 315 L540 230 L610 230 L610 315 L650 315 L650 395 L720 395 L720 315 L760 315 L760 245 L830 245 L830 315 L870 315 L870 385 L940 385 L940 315 L980 315 L980 235 L1050 235 L1050 315 L1090 315 L1090 390 L1140 390 L1140 315"
        stroke="#f7931e" stroke-width="4" fill="none" stroke-linecap="round" stroke-linejoin="round" opacity="0.9"/>
  <!-- Glow effect -->
  <path d="M60 315 L120 315 L120 240 L180 240 L180 315 L220 315 L220 390 L300 390 L300 315 L340 315 L340 250 L400 250 L400 315 L430 315 L430 380 L490 380 L490 315 L540 315 L540 230 L610 230 L610 315 L650 315 L650 395 L720 395 L720 315 L760 315 L760 245 L830 245 L830 315 L870 315 L870 385 L940 385 L940 315 L980 315 L980 235 L1050 235 L1050 315 L1090 315 L1090 390 L1140 390 L1140 315"
        stroke="#f7931e" stroke-width="12" fill="none" opacity="0.15" stroke-linecap="round" stroke-linejoin="round"/>
  <!-- Icon box -->
  <rect x="80" y="80" width="72" height="72" rx="18" fill="#f7931e"/>
  <text x="116" y="132" font-size="38" text-anchor="middle" font-family="serif">📡</text>
  <!-- Title -->
  <text x="176" y="118" font-family="-apple-system,BlinkMacSystemFont,Segoe UI,sans-serif" font-weight="900" font-size="52" fill="#e8eaf2" letter-spacing="-1">Flipper</text>
  <text x="176" y="118" font-family="-apple-system,BlinkMacSystemFont,Segoe UI,sans-serif" font-weight="900" font-size="52" fill="#f7931e" letter-spacing="-1" dx="248"> Signal DB</text>
  <!-- Subtitle -->
  <text x="80" y="520" font-family="-apple-system,BlinkMacSystemFont,Segoe UI,sans-serif" font-size="28" fill="#6b7694">Community-maintained Flipper Zero Sub-GHz signal database</text>
  <!-- Badges -->
  <rect x="80" y="548" width="160" height="36" rx="18" fill="#1a1f2e" stroke="#252d42" stroke-width="1"/>
  <text x="160" y="572" font-family="sans-serif" font-size="18" fill="#3ddc84" text-anchor="middle">● Garage Doors</text>
  <rect x="252" y="548" width="130" height="36" rx="18" fill="#1a1f2e" stroke="#252d42" stroke-width="1"/>
  <text x="317" y="572" font-family="sans-serif" font-size="18" fill="#4fa3e0" text-anchor="middle">● Car Keys</text>
  <rect x="394" y="548" width="120" height="36" rx="18" fill="#1a1f2e" stroke="#252d42" stroke-width="1"/>
  <text x="454" y="572" font-family="sans-serif" font-size="18" fill="#9b6dff" text-anchor="middle">● Intercoms</text>
  <rect x="526" y="548" width="190" height="36" rx="18" fill="#1a1f2e" stroke="#252d42" stroke-width="1"/>
  <text x="621" y="572" font-family="sans-serif" font-size="18" fill="#2dd4bf" text-anchor="middle">● Weather Stations</text>
  <!-- URL -->
  <text x="1120" y="572" font-family="monospace" font-size="20" fill="#2e3a55" text-anchor="end">og34.github.io/flipper-signal-db</text>
</svg>
